<svg width="200" height="256" viewBox="0 0 200 256" fill="none" xmlns="http://www.w3.org/2000/svg">
<path d="M156.189 181.745L99.9996 196.875L43.8097 181.745L30.8435 41.2729H169.157L156.189 181.745Z" fill="#2062AF"/>
<path d="M99.999 52.6511V184.808L100.126 184.843L145.597 172.598L156.093 52.6511H99.999V52.6511Z" fill="#3C9CD7"/>
<path d="M68.1099 20.6347V12.2738H80.3085V3.125H58.9611V28.9833H80.3085V20.6347H68.1099ZM102.252 12.2738H110.781V3.125H89.4313V12.2738C92.2876 15.1301 93.7772 16.4972 97.9081 20.6281C95.4932 20.6281 89.4313 20.6368 89.4313 20.6364V28.9833H110.781V20.6347L102.252 12.2738ZM132.511 12.2738H141.039V3.125H119.689V12.2738C122.545 15.1301 124.036 16.4972 128.167 20.6281C125.753 20.6281 119.689 20.6368 119.689 20.6364V28.9833H141.04V20.6347L132.511 12.2738V12.2738Z" fill="black"/>
<path d="M99.9493 87.7749L59.7329 104.524L61.0666 121.107L99.9493 104.482L141.31 86.798L143.025 69.8345L99.9493 87.7749Z" fill="white"/>
<path d="M59.7325 104.524L61.0661 121.107L99.9488 104.482V87.7749L59.7325 104.524V104.524Z" fill="url(#paint0_linear_188_891)"/>
<path d="M143.025 69.8349L99.9493 87.7749V104.482L141.31 86.798L143.025 69.8349Z" fill="url(#paint1_linear_188_891)"/>
<path d="M59.7943 104.524L61.1284 121.107L120.789 121.297L119.454 143.407L99.8225 148.934L80.9507 144.169L79.8072 130.445H62.2719L64.5593 156.939L100.013 167.422L135.275 157.129L139.85 104.524H59.7943V104.524Z" fill="url(#paint2_linear_188_891)"/>
<path opacity="0.05" d="M99.9493 104.524H59.7329L61.0666 121.107L99.9493 121.231V104.524ZM99.9493 148.881L99.7587 148.934L80.8893 144.169L79.7458 130.446H62.2109L64.4979 156.94L99.9493 167.423V148.881Z" fill="black"/>
<path d="M56.1111 69.8349H143.025L141.31 86.7984H58.2075L56.1111 69.8349V69.8349Z" fill="url(#paint3_linear_188_891)"/>
<path opacity="0.05" d="M99.9494 69.8349H56.1111L58.2075 86.7984H99.9494V69.8349V69.8349Z" fill="black"/>
<path d="M68.2422 228.008H71.8516C73.0078 228.008 73.9609 227.812 74.7109 227.422C75.4609 227.016 76.0156 226.453 76.375 225.734C76.75 225 76.9375 224.148 76.9375 223.18C76.9375 222.305 76.7656 221.531 76.4219 220.859C76.0938 220.172 75.5859 219.641 74.8984 219.266C74.2109 218.875 73.3438 218.68 72.2969 218.68C71.4688 218.68 70.7031 218.844 70 219.172C69.2969 219.5 68.7344 219.961 68.3125 220.555C67.8906 221.148 67.6797 221.867 67.6797 222.711H60.9062C60.9062 220.836 61.4062 219.203 62.4062 217.812C63.4219 216.422 64.7812 215.336 66.4844 214.555C68.1875 213.773 70.0625 213.383 72.1094 213.383C74.4219 213.383 76.4453 213.758 78.1797 214.508C79.9141 215.242 81.2656 216.328 82.2344 217.766C83.2031 219.203 83.6875 220.984 83.6875 223.109C83.6875 224.188 83.4375 225.234 82.9375 226.25C82.4375 227.25 81.7188 228.156 80.7812 228.969C79.8594 229.766 78.7344 230.406 77.4062 230.891C76.0781 231.359 74.5859 231.594 72.9297 231.594H68.2422V228.008ZM68.2422 233.141V229.648H72.9297C74.7891 229.648 76.4219 229.859 77.8281 230.281C79.2344 230.703 80.4141 231.312 81.3672 232.109C82.3203 232.891 83.0391 233.82 83.5234 234.898C84.0078 235.961 84.25 237.141 84.25 238.438C84.25 240.031 83.9453 241.453 83.3359 242.703C82.7266 243.938 81.8672 244.984 80.7578 245.844C79.6641 246.703 78.3828 247.359 76.9141 247.812C75.4453 248.25 73.8438 248.469 72.1094 248.469C70.6719 248.469 69.2578 248.273 67.8672 247.883C66.4922 247.477 65.2422 246.875 64.1172 246.078C63.0078 245.266 62.1172 244.25 61.4453 243.031C60.7891 241.797 60.4609 240.336 60.4609 238.648H67.2344C67.2344 239.523 67.4531 240.305 67.8906 240.992C68.3281 241.68 68.9297 242.219 69.6953 242.609C70.4766 243 71.3438 243.195 72.2969 243.195C73.375 243.195 74.2969 243 75.0625 242.609C75.8438 242.203 76.4375 241.641 76.8438 240.922C77.2656 240.188 77.4766 239.336 77.4766 238.367C77.4766 237.117 77.25 236.117 76.7969 235.367C76.3438 234.602 75.6953 234.039 74.8516 233.68C74.0078 233.32 73.0078 233.141 71.8516 233.141H68.2422ZM111.859 227.938V233.844C111.859 236.406 111.586 238.617 111.039 240.477C110.492 242.32 109.703 243.836 108.672 245.023C107.656 246.195 106.445 247.062 105.039 247.625C103.633 248.188 102.07 248.469 100.352 248.469C98.9766 248.469 97.6953 248.297 96.5078 247.953C95.3203 247.594 94.25 247.039 93.2969 246.289C92.3594 245.539 91.5469 244.594 90.8594 243.453C90.1875 242.297 89.6719 240.922 89.3125 239.328C88.9531 237.734 88.7734 235.906 88.7734 233.844V227.938C88.7734 225.375 89.0469 223.18 89.5938 221.352C90.1562 219.508 90.9453 218 91.9609 216.828C92.9922 215.656 94.2109 214.797 95.6172 214.25C97.0234 213.688 98.5859 213.406 100.305 213.406C101.68 213.406 102.953 213.586 104.125 213.945C105.312 214.289 106.383 214.828 107.336 215.562C108.289 216.297 109.102 217.242 109.773 218.398C110.445 219.539 110.961 220.906 111.32 222.5C111.68 224.078 111.859 225.891 111.859 227.938ZM105.086 234.734V227.023C105.086 225.789 105.016 224.711 104.875 223.789C104.75 222.867 104.555 222.086 104.289 221.445C104.023 220.789 103.695 220.258 103.305 219.852C102.914 219.445 102.469 219.148 101.969 218.961C101.469 218.773 100.914 218.68 100.305 218.68C99.5391 218.68 98.8594 218.828 98.2656 219.125C97.6875 219.422 97.1953 219.898 96.7891 220.555C96.3828 221.195 96.0703 222.055 95.8516 223.133C95.6484 224.195 95.5469 225.492 95.5469 227.023V234.734C95.5469 235.969 95.6094 237.055 95.7344 237.992C95.875 238.93 96.0781 239.734 96.3438 240.406C96.625 241.062 96.9531 241.602 97.3281 242.023C97.7188 242.43 98.1641 242.727 98.6641 242.914C99.1797 243.102 99.7422 243.195 100.352 243.195C101.102 243.195 101.766 243.047 102.344 242.75C102.938 242.438 103.438 241.953 103.844 241.297C104.266 240.625 104.578 239.75 104.781 238.672C104.984 237.594 105.086 236.281 105.086 234.734ZM123.32 212V248H116.57V212H123.32ZM122.359 234.43H120.508C120.523 232.664 120.758 231.039 121.211 229.555C121.664 228.055 122.312 226.758 123.156 225.664C124 224.555 125.008 223.695 126.18 223.086C127.367 222.477 128.68 222.172 130.117 222.172C131.367 222.172 132.5 222.352 133.516 222.711C134.547 223.055 135.43 223.617 136.164 224.398C136.914 225.164 137.492 226.172 137.898 227.422C138.305 228.672 138.508 230.188 138.508 231.969V248H131.711V231.922C131.711 230.797 131.547 229.914 131.219 229.273C130.906 228.617 130.445 228.156 129.836 227.891C129.242 227.609 128.508 227.469 127.633 227.469C126.664 227.469 125.836 227.648 125.148 228.008C124.477 228.367 123.938 228.867 123.531 229.508C123.125 230.133 122.828 230.867 122.641 231.711C122.453 232.555 122.359 233.461 122.359 234.43Z" fill="#6B7280"/>
<defs>
<linearGradient id="paint0_linear_188_891" x1="79.8406" y1="121.107" x2="79.8406" y2="87.7753" gradientUnits="userSpaceOnUse">
<stop offset="0.387" stop-color="#D1D3D4" stop-opacity="0"/>
<stop offset="1" stop-color="#D1D3D4"/>
</linearGradient>
<linearGradient id="paint1_linear_188_891" x1="121.487" y1="104.482" x2="121.487" y2="69.8353" gradientUnits="userSpaceOnUse">
<stop offset="0.387" stop-color="#D1D3D4" stop-opacity="0"/>
<stop offset="1" stop-color="#D1D3D4"/>
</linearGradient>
<linearGradient id="paint2_linear_188_891" x1="59.7943" y1="135.973" x2="139.849" y2="135.973" gradientUnits="userSpaceOnUse">
<stop stop-color="#E8E7E5"/>
<stop offset="1" stop-color="white"/>
</linearGradient>
<linearGradient id="paint3_linear_188_891" x1="56.1111" y1="78.3167" x2="143.025" y2="78.3167" gradientUnits="userSpaceOnUse">
<stop stop-color="#E8E7E5"/>
<stop offset="1" stop-color="white"/>
</linearGradient>
</defs>
</svg>
