<svg width="31" height="30" viewBox="0 0 31 30" fill="none" xmlns="http://www.w3.org/2000/svg">
<g clip-path="url(#clip0_507_500)">
<path d="M15.4995 0.312302C7.21661 0.312302 0.5 7.05408 0.5 15.3728C0.5 22.0255 4.79726 27.6704 10.76 29.6615C11.5095 29.8004 11.7829 29.3354 11.7829 28.9357C11.7829 28.5786 11.7698 27.6317 11.7626 26.3746C7.58919 27.2857 6.70903 24.3559 6.70903 24.3559C6.02774 22.6159 5.04452 22.1538 5.04452 22.1538C3.68194 21.2189 5.1471 21.2368 5.1471 21.2368C6.65194 21.3428 7.44403 22.7896 7.44403 22.7896C8.78339 25.0908 10.956 24.4255 11.8105 24.0399C11.9455 23.0673 12.334 22.4029 12.7623 22.027C9.43226 21.6462 5.93097 20.3552 5.93097 14.585C5.93097 12.9413 6.515 11.5967 7.47452 10.5428C7.31919 10.162 6.80484 8.63149 7.62064 6.55859C7.62064 6.55859 8.88064 6.15408 11.7456 8.10214C12.9423 7.76827 14.2255 7.60133 15.5015 7.59456C16.7745 7.60133 18.0587 7.76779 19.2573 8.10214C22.1198 6.15408 23.3779 6.55859 23.3779 6.55859C24.1956 8.63149 23.6813 10.162 23.5265 10.5428C24.4884 11.5967 25.069 12.9409 25.069 14.585C25.069 20.3697 21.5619 21.6423 18.2203 22.0159C18.7589 22.4809 19.2384 23.3992 19.2384 24.8049C19.2384 26.8188 19.2205 28.4417 19.2205 28.9357C19.2205 29.3392 19.491 29.8081 20.2516 29.6596C26.2066 27.6646 30.5 22.0236 30.5 15.3728C30.5 7.05408 23.7834 0.312302 15.4995 0.312302Z" fill="white"/>
<path d="M15.4995 0.312302C7.21661 0.312302 0.5 7.05408 0.5 15.3728C0.5 22.0255 4.79726 27.6704 10.76 29.6615C11.5095 29.8004 11.7829 29.3354 11.7829 28.9357C11.7829 28.5786 11.7698 27.6317 11.7626 26.3746C7.58919 27.2857 6.70903 24.3559 6.70903 24.3559C6.02774 22.6159 5.04452 22.1538 5.04452 22.1538C3.68194 21.2189 5.1471 21.2368 5.1471 21.2368C6.65194 21.3428 7.44403 22.7896 7.44403 22.7896C8.78339 25.0908 10.956 24.4255 11.8105 24.0399C11.9455 23.0673 12.334 22.4029 12.7623 22.027C9.43226 21.6462 5.93097 20.3552 5.93097 14.585C5.93097 12.9413 6.515 11.5967 7.47452 10.5428C7.31919 10.162 6.80484 8.63149 7.62064 6.55859C7.62064 6.55859 8.88064 6.15408 11.7456 8.10214C12.9423 7.76827 14.2255 7.60133 15.5015 7.59456C16.7745 7.60133 18.0587 7.76779 19.2573 8.10214C22.1198 6.15408 23.3779 6.55859 23.3779 6.55859C24.1956 8.63149 23.6813 10.162 23.5265 10.5428C24.4884 11.5967 25.069 12.9409 25.069 14.585C25.069 20.3697 21.5619 21.6423 18.2203 22.0159C18.7589 22.4809 19.2384 23.3992 19.2384 24.8049C19.2384 26.8188 19.2205 28.4417 19.2205 28.9357C19.2205 29.3392 19.491 29.8081 20.2516 29.6596C26.2066 27.6646 30.5 22.0236 30.5 15.3728C30.5 7.05408 23.7834 0.312302 15.4995 0.312302Z" fill="white"/>
<path d="M23.3929 6.60062C24.1869 8.65126 23.6803 10.1648 23.526 10.5427C24.4879 11.5966 25.0686 12.9408 25.0686 14.585C25.0686 20.3697 21.5615 21.6422 18.2198 22.0158C18.7584 22.4808 19.2379 23.3992 19.2379 24.8048C19.2379 26.8187 19.22 28.4416 19.22 28.9356C19.22 29.3392 19.4905 29.808 20.2511 29.6595C26.2066 27.6645 30.5 22.0235 30.5 15.3727C30.5 13.5848 30.1884 11.8709 29.6189 10.28C27.5508 8.10255 25.249 6.65239 23.3929 6.60062Z" fill="white"/>
<path d="M12.1719 22.8219C12.3403 22.4823 12.546 22.2181 12.7623 22.0269C10.9371 21.8179 9.06258 21.3307 7.7392 19.986C8.75726 21.6805 10.415 22.4513 12.1719 22.8219Z" fill="white"/>
<path d="M1.28097 16.3879C1.28097 8.06924 7.99758 1.32746 16.2805 1.32746C20.8797 1.32746 24.9935 3.40762 27.7444 6.67956C25.0274 2.82795 20.5574 0.312302 15.4995 0.312302C7.21661 0.312302 0.5 7.05408 0.5 15.3728C0.5 19.0817 1.8379 22.475 4.05355 25.0981C2.31113 22.6386 1.28097 19.6357 1.28097 16.3879Z" fill="white"/>
<path d="M20.0189 25.8205C20.0189 24.4154 19.5394 23.4955 19.0008 23.0305C22.3424 22.658 25.85 21.3844 25.85 15.6002C25.85 13.956 25.2694 12.6123 24.3065 11.5584C24.4623 11.1776 24.9776 9.64666 24.1579 7.57425C24.1579 7.57425 24.0021 7.52634 23.6803 7.54473C24.0316 9.10763 23.6552 10.2254 23.526 10.5428C24.4879 11.5967 25.0686 12.9409 25.0686 14.5851C25.0686 20.3697 21.5615 21.6423 18.2198 22.0159C18.7584 22.4809 19.2379 23.3992 19.2379 24.8049C19.2379 26.8188 19.22 28.4417 19.22 28.9357C19.22 29.2909 19.4315 29.6959 20.0015 29.6862C20.0053 29.0054 20.0189 27.56 20.0189 25.8205Z" fill="white"/>
<path d="M7.60468 25.6449C7.91968 26.2932 8.97838 27.8465 11.7713 27.5194C11.7674 27.1777 11.7645 26.795 11.7626 26.3745C9.6079 26.8448 8.3358 26.2903 7.60468 25.6449Z" fill="white"/>
<path d="M8.14322 23.6726C8.04693 23.5274 7.86645 23.2811 7.60468 23.0348C7.77451 23.2869 7.955 23.4984 8.14322 23.6726Z" fill="white"/>
</g>
<defs>
<clipPath id="clip0_507_500">
<rect width="30" height="30" fill="white" transform="translate(0.5)"/>
</clipPath>
</defs>
</svg>
