<svg width="200" height="256" viewBox="0 0 200 256" fill="none" xmlns="http://www.w3.org/2000/svg">
<path d="M168.633 41.2016L156.127 181.292L99.9161 196.875L43.8596 181.313L31.3674 41.2016H168.633Z" fill="#E44D26"/>
<path d="M100 184.963L145.422 172.371L156.108 52.6574H100V184.963Z" fill="#F16529"/>
<path d="M75.6904 87.0262H100V69.842H56.9104L57.3214 74.4522L61.5452 121.807H100V104.623H77.261L75.6904 87.0262ZM79.5634 130.399H62.3131L64.7203 157.381L99.921 167.152L100 167.131V149.252L99.9247 149.272L80.7869 144.104L79.5634 130.399Z" fill="#EBEBEB"/>
<path d="M44.1384 3.125H52.8711V11.7528H60.8597V3.125H69.593V29.2522H60.8603V20.5033H52.8717V29.2522H44.1389V3.125H44.1384ZM81.0764 11.7894H73.3896V3.125H97.5023V11.7894H89.8107V29.2522H81.078V11.7894H81.0774H81.0764ZM101.329 3.125H110.435L116.036 12.3054L121.632 3.125H130.741V29.2522H122.044V16.3021L116.036 25.5918H115.885L109.873 16.3021V29.2522H101.329V3.125ZM135.087 3.125H143.823V20.6163H156.103V29.2522H135.087V3.125H135.087Z" fill="black"/>
<path d="M99.9408 121.807H121.101L119.106 144.094L99.9402 149.267V167.144L135.169 157.381L135.427 154.478L139.466 109.237L139.885 104.623H99.9408V121.807ZM99.9408 86.9842V87.0262H141.449L141.793 83.1639L142.576 74.4522L142.987 69.842H99.9408V86.9847V86.9842Z" fill="white"/>
<path d="M84.6719 242.727V248H61.3281V243.5L72.3672 231.664C73.4766 230.43 74.3516 229.344 74.9922 228.406C75.6328 227.453 76.0938 226.602 76.375 225.852C76.6719 225.086 76.8203 224.359 76.8203 223.672C76.8203 222.641 76.6484 221.758 76.3047 221.023C75.9609 220.273 75.4531 219.695 74.7812 219.289C74.125 218.883 73.3125 218.68 72.3438 218.68C71.3125 218.68 70.4219 218.93 69.6719 219.43C68.9375 219.93 68.375 220.625 67.9844 221.516C67.6094 222.406 67.4219 223.414 67.4219 224.539H60.6484C60.6484 222.508 61.1328 220.648 62.1016 218.961C63.0703 217.258 64.4375 215.906 66.2031 214.906C67.9688 213.891 70.0625 213.383 72.4844 213.383C74.875 213.383 76.8906 213.773 78.5312 214.555C80.1875 215.32 81.4375 216.43 82.2812 217.883C83.1406 219.32 83.5703 221.039 83.5703 223.039C83.5703 224.164 83.3906 225.266 83.0312 226.344C82.6719 227.406 82.1562 228.469 81.4844 229.531C80.8281 230.578 80.0312 231.641 79.0938 232.719C78.1562 233.797 77.1172 234.914 75.9766 236.07L70.0469 242.727H84.6719ZM105.344 213.805V248H98.5938V221.586L90.4844 224.164V218.844L104.617 213.805H105.344ZM123.32 212V248H116.57V212H123.32ZM122.359 234.43H120.508C120.523 232.664 120.758 231.039 121.211 229.555C121.664 228.055 122.312 226.758 123.156 225.664C124 224.555 125.008 223.695 126.18 223.086C127.367 222.477 128.68 222.172 130.117 222.172C131.367 222.172 132.5 222.352 133.516 222.711C134.547 223.055 135.43 223.617 136.164 224.398C136.914 225.164 137.492 226.172 137.898 227.422C138.305 228.672 138.508 230.188 138.508 231.969V248H131.711V231.922C131.711 230.797 131.547 229.914 131.219 229.273C130.906 228.617 130.445 228.156 129.836 227.891C129.242 227.609 128.508 227.469 127.633 227.469C126.664 227.469 125.836 227.648 125.148 228.008C124.477 228.367 123.938 228.867 123.531 229.508C123.125 230.133 122.828 230.867 122.641 231.711C122.453 232.555 122.359 233.461 122.359 234.43Z" fill="#6B7280"/>
</svg>
